<?xml version="1.0" encoding="utf-8"?>
<!-- Generator: Adobe Illustrator 14.0.0, SVG Export Plug-In . SVG Version: 6.00 Build 43363)  -->
<!DOCTYPE svg PUBLIC "-//W3C//DTD SVG 1.1//EN" "http://www.w3.org/Graphics/SVG/1.1/DTD/svg11.dtd">
<svg version="1.1" id="Layer_1" xmlns="http://www.w3.org/2000/svg" xmlns:xlink="http://www.w3.org/1999/xlink" x="0px" y="0px"
	 width="828px" height="828px" viewBox="0 0 828 828" enable-background="new 0 0 828 828" xml:space="preserve">
<path d="M494.189,270.895c-5.334-4.71-11.05-8.772-16.896-12.813c-4.157,4.157-8.317,8.316-12.477,12.476
	c-3.956-2.769-7.813-5.591-11.566-8.635c4.159-4.159,8.318-8.319,12.476-12.476c-5.492-4.921-9.74-9.962-13.209-16.494
	c-4.951,4.951-9.902,9.902-14.853,14.853c2.911,5.482,6.298,9.882,10.694,14.255c-3.367,3.368-6.734,6.735-10.101,10.101
	c-4.396-4.373-7.783-8.772-10.694-14.255c-2.988,2.987-5.976,5.975-8.963,8.962c-1.963,1.963-3.929,3.929-5.892,5.893l-8.915,8.915
	l-8.915-8.915c-1.963-1.964-3.929-3.929-5.892-5.893c-2.987-2.987-5.974-5.975-8.962-8.962c-2.912,5.483-6.298,9.882-10.695,14.255
	c-3.366-3.366-6.733-6.733-10.101-10.101c4.396-4.373,7.783-8.773,10.694-14.255c-4.951-4.951-9.901-9.901-14.852-14.853
	c-3.47,6.532-7.717,11.573-13.21,16.494c4.157,4.156,8.316,8.316,12.476,12.476c-3.753,3.044-7.609,5.866-11.567,8.635
	c-4.159-4.16-8.318-8.319-12.475-12.476c-5.847,4.041-11.563,8.103-16.896,12.813c4.16,4.159,8.316,8.317,12.476,12.475
	c-4.397,4.374-7.784,8.772-10.698,14.258c4.951,4.95,9.901,9.901,14.855,14.854c2.91-5.483,6.3-9.885,10.697-14.257
	c4.159,4.159,8.318,8.318,12.477,12.478c5.334-4.711,11.05-8.773,16.894-12.816c-4.159-4.159-8.318-8.318-12.478-12.477
	c3.96-2.766,7.817-5.588,11.57-8.632c4.159,4.159,8.318,8.318,12.477,12.478c2.209-1.98,4.214-3.977,6.052-6.084l7.289,7.289
	l-28.437,28.438c-1.576,1.575-1.576,4.128,0,5.704l3.08,3.08c1.576,1.576,4.129,1.576,5.705,0l28.437-28.437l28.437,28.437
	c1.576,1.576,4.129,1.576,5.705,0l3.079-3.08c1.576-1.576,1.576-4.128,0-5.704l-28.436-28.438l7.289-7.289
	c1.838,2.108,3.843,4.104,6.052,6.084c4.159-4.159,8.318-8.318,12.477-12.478c3.753,3.044,7.61,5.866,11.57,8.632
	c-4.159,4.159-8.318,8.318-12.478,12.477c5.844,4.043,11.56,8.104,16.894,12.816c4.158-4.159,8.318-8.318,12.478-12.478
	c4.396,4.373,7.786,8.774,10.696,14.257c4.953-4.953,9.904-9.904,14.855-14.854c-2.915-5.486-6.302-9.884-10.698-14.258
	C485.873,279.211,490.029,275.054,494.189,270.895z M340.871,293.611c-3.367-3.368-6.736-6.736-10.101-10.101
	c3.748-3.044,7.607-5.868,11.567-8.634c3.368,3.368,6.733,6.733,10.101,10.101C348.478,287.743,344.618,290.566,340.871,293.611z
	 M466.719,293.611c-3.748-3.045-7.606-5.868-11.566-8.635c3.367-3.367,6.733-6.733,10.102-10.101
	c3.959,2.766,7.818,5.59,11.566,8.634C473.455,286.875,470.088,290.243,466.719,293.611z M529.4,280.911h-0.007v-0.006h0.007
	V280.911z"/>
</svg>
